<?xml version="1.0" encoding="UTF-8"?>
<svg width="135px" height="125px" viewBox="0 0 135 125" version="1.1" xmlns="http://www.w3.org/2000/svg" xmlns:xlink="http://www.w3.org/1999/xlink">
    <!-- Generator: Sketch 51.2 (57519) - http://www.bohemiancoding.com/sketch -->
    <title>chart-error-graphic</title>
    <desc>Created with Sketch.</desc>
    <defs></defs>
    <g id="DataViz" stroke="none" stroke-width="1" fill="none" fill-rule="evenodd">
        <g id="Bad-Chart---series" transform="translate(-696.000000, -392.000000)">
            <g id="empty-state-content" transform="translate(542.000000, 396.000000)">
                <g id="chart-error-graphic" transform="translate(154.000000, 0.000000)">
                    <g id="analytics-graph-line">
                        <polyline id="Shape" stroke="#9E9E9E" stroke-width="8" stroke-linecap="round" stroke-linejoin="round" points="130 117 4 117 4 0"></polyline>
                        <path d="M50.6056917,46.0431287 L44.948507,51.6996938 L43.7997826,50.5446154 C43.741619,50.4861301 43.6852784,50.4258596 43.6308415,50.3638906 C43.460624,50.170121 42.8502624,49.4177159 42.7156713,49.264767 C42.6193525,49.1553105 42.5371466,49.0686939 42.4701724,49.0040705 C42.4190787,49.0065427 30.3811335,57.7492814 6.3563369,75.2322866 C4.57119433,76.5336555 2.06908238,76.1414795 0.76771344,74.3563369 C-0.533655496,72.5711943 -0.141479476,70.0690824 1.6436631,68.7677134 L37.6436631,42.5237134 C39.888464,41.0293478 42.4984441,40.6380982 44.9150632,41.3547809 C46.4697645,41.8158497 47.6007182,42.706227 48.7214579,43.9798329 C48.9538133,44.2438811 49.4272949,44.824071 49.5877932,45.0195998 L50.6056917,46.0431287 Z M80.6785345,76.6742904 C80.6809048,76.6797634 80.6832632,76.6852422 80.6856095,76.6907268 C80.7594224,76.8632683 80.9236371,76.9799481 81.1108582,76.9928792 C81.2721477,77.0040194 81.4271109,76.9365442 81.5288564,76.8148562 L82.5275317,74.8254951 L92.276726,65.0773653 C95.4980943,61.8520982 95.8608044,56.8557836 93.3668112,53.2336505 L99.4251672,41.1654052 C99.4673815,41.0813143 99.5125498,40.9987391 99.5605877,40.9178337 C100.720116,38.9649579 102.616804,37.5609166 104.823154,37.0221679 L130.20732,32.0737722 C132.375716,31.6514513 134.475907,33.0669246 134.898228,35.2353204 C135.320549,37.4037161 133.905075,39.503907 131.73668,39.9262278 L106.67714,44.8068715 C106.599396,44.8344084 106.530776,44.8826713 106.478638,44.9462158 L88.5748328,80.6105948 C88.5288231,80.7022462 88.4793057,80.7920943 88.4263905,80.8799399 C86.7802228,83.612778 83.7423766,85.1936952 80.5596189,84.9738651 C78.4067358,84.8251675 76.4328014,83.8694863 74.9924096,82.3587717 C75.0194613,82.3323833 75.046392,82.305797 75.0731999,82.2790131 L80.6785345,76.6742904 Z" id="Combined-Shape" fill="#9E9E9E" fill-rule="nonzero" opacity="0.300000012"></path>
                    </g>
                    <g id="alert-diamond" transform="translate(48.000000, 38.000000)" stroke="#494949">
                        <path d="M2.02668702,21.7741765 L19.2277303,38.9733426 C19.9305681,39.6755525 21.0694319,39.6755525 21.7718535,38.9737586 L38.9730152,21.7744748 C39.6756616,21.0709776 39.6756616,19.9312898 38.9737146,19.2284924 L21.7705105,2.02716424 C21.4338345,1.68967097 20.9767118,1.5 20.5,1.5 C20.0232882,1.5 19.5661655,1.68967097 19.2281465,2.02850872 L2.02698483,19.2277926 C1.32443767,19.9311903 1.3243384,21.0706555 2.02668702,21.7741765 Z M2.02668702,21.7741765 C2.02678628,21.774276 2.02688555,21.7743754 2.02698483,21.7744748 L2.02628542,21.773775 L2.02668702,21.7741765 Z" id="Shape" stroke-width="3" fill="#FFFFFF"></path>
                        <path d="M19.7407407,28.0925926 C19.4262453,28.0925926 19.1712963,28.3475416 19.1712963,28.662037 C19.1712963,28.9765325 19.4262453,29.2314815 19.7407407,29.2314815 C20.0552362,29.2314815 20.3101852,28.9765325 20.3101852,28.662037 C20.3101852,28.3475416 20.0552362,28.0925926 19.7407407,28.0925926" id="Shape" stroke-width="2.25" stroke-linecap="round" stroke-linejoin="round"></path>
                        <path d="M19.7407407,23.537037 L19.7407407,12.1481481" id="Shape" stroke-width="2.25" stroke-linecap="round"></path>
                    </g>
                </g>
            </g>
        </g>
    </g>
</svg>